<svg xmlns="http://www.w3.org/2000/svg" width="20.586" height="21.353" viewBox="0 0 20.586 21.353">
  <g id="Layer_3" data-name="Layer 3" transform="translate(-8.42 -7.83)">
    <path id="Path_4683" data-name="Path 4683" d="M21.263,7.837a.773.773,0,1,0,0,1.545H24.34a.786.786,0,0,0,.786-.779.773.773,0,0,0-.773-.773Zm4.068,17.872a.773.773,0,0,0,.779-.773V14.87a.786.786,0,0,0-.773-.773.773.773,0,0,0-.773.773V24.936a.773.773,0,0,0,.766.773Z" transform="translate(-4.098)" fill="#fff"/>
    <path id="Path_4684" data-name="Path 4684" d="M28.227,12.53H9.193a.773.773,0,0,0,0,1.545h1.592V28.843a1.935,1.935,0,0,0,1.935,1.935H24.707a1.922,1.922,0,0,0,1.929-1.935V14.075h1.585a.793.793,0,0,0,.786-.773.773.773,0,0,0-.779-.773ZM25.09,28.843a.39.39,0,0,1-.4.39H12.7a.39.39,0,0,1-.4-.39V14.075H25.09Z" transform="translate(0 -1.596)" fill="#fff"/>
    <path id="Path_4685" data-name="Path 4685" d="M20.5,28.894a.779.779,0,0,0,.766-.773V18.056a.773.773,0,1,0-1.539,0V28.121a.773.773,0,0,0,.773.773Z" transform="translate(-3.839 -3.186)" fill="#fff"/>
  </g>
</svg>
