<svg id="Group_1168" data-name="Group 1168" xmlns="http://www.w3.org/2000/svg" width="20.281" height="20.281" viewBox="0 0 20.281 20.281">
  <path id="Path_4821" data-name="Path 4821" d="M0,0H20.281V20.281H0Z" fill="none"/>
  <path id="Path_4822" data-name="Path 4822" d="M16.038,8.863A5.068,5.068,0,0,0,12.45,7.38v5.07L8.863,16.038a5.073,5.073,0,0,0,7.174-7.174ZM12.45,4a8.45,8.45,0,1,0,8.45,8.45A8.448,8.448,0,0,0,12.45,4Zm0,15.211a6.76,6.76,0,1,1,6.76-6.76,6.758,6.758,0,0,1-6.76,6.76Z" transform="translate(-2.31 -2.31)" fill="#64625e"/>
</svg>
