<svg xmlns="http://www.w3.org/2000/svg" width="48.988" height="49.663" viewBox="0 0 48.988 49.663">
  <g id="Layer_2" data-name="Layer 2" transform="translate(0 0)">
    <path id="Path_2266" data-name="Path 2266" d="M45.364,1H41.423a4.582,4.582,0,0,0-4.544,4.619v33.8a4.582,4.582,0,0,0,4.544,4.619h3.941a4.582,4.582,0,0,0,4.544-4.619V5.619A4.582,4.582,0,0,0,45.364,1Zm1.287,38.422a1.3,1.3,0,0,1-1.287,1.308H41.423a1.3,1.3,0,0,1-1.287-1.308V5.619a1.3,1.3,0,0,1,1.287-1.308h3.941a1.3,1.3,0,0,1,1.287,1.308ZM5.464,44.041H9.4a4.6,4.6,0,0,0,4.544-4.619V18.862A4.6,4.6,0,0,0,9.4,14.243H5.464A4.582,4.582,0,0,0,.92,18.862v20.56a4.582,4.582,0,0,0,4.544,4.619ZM4.177,18.862a1.3,1.3,0,0,1,1.287-1.308H9.4a1.314,1.314,0,0,1,1.287,1.308v20.56A1.314,1.314,0,0,1,9.4,40.73H5.464a1.3,1.3,0,0,1-1.287-1.308ZM27.319,44.041a4.6,4.6,0,0,0,4.544-4.619V12.24a4.6,4.6,0,0,0-4.544-4.619H23.378a4.582,4.582,0,0,0-4.544,4.619V39.422a4.582,4.582,0,0,0,4.544,4.619Zm-5.228-4.619V12.24a1.3,1.3,0,0,1,1.287-1.308h3.941a1.314,1.314,0,0,1,1.287,1.308V39.422a1.314,1.314,0,0,1-1.287,1.308H23.378a1.3,1.3,0,0,1-1.287-1.308Zm-12.9,9.585a1.642,1.642,0,0,0,1.629,1.655H40.136a1.656,1.656,0,0,0,0-3.311H10.822A1.642,1.642,0,0,0,9.193,49.007Z" transform="translate(-0.92 -1)" fill="#1b64c4"/>
  </g>
</svg>
