<svg xmlns="http://www.w3.org/2000/svg" width="52.537" height="51.865" viewBox="0 0 52.537 51.865">
  <path id="Path_2271" data-name="Path 2271" d="M19,6.8a2.3,2.3,0,0,1,.608,4.538A19.177,19.177,0,0,0,4.536,30.178,12.233,12.233,0,0,0,4.66,32.3a18.949,18.949,0,0,0,37.125,2.874h0l.1-.289A2.271,2.271,0,0,1,44.557,33.6a2.23,2.23,0,0,1,1.4,1.038,2.269,2.269,0,0,1,.236,1.736A23.657,23.657,0,0,1,34.831,50.9a23.238,23.238,0,0,1-22.094.341A23.668,23.668,0,0,1,.18,32.878,14.937,14.937,0,0,1,.007,30.1,23.69,23.69,0,0,1,18.718,6.834h0ZM29.685,2c12.069.357,20.881,10.642,22.821,22.677h.025v.4l.007.421a4.248,4.248,0,0,1-1.046,2.658,4.168,4.168,0,0,1-2.9,1.421h0l-18.563-.083h-.3a4.547,4.547,0,0,1-4.5-4.2h0L25.3,6.525a4.248,4.248,0,0,1,1.163-3.2A4.334,4.334,0,0,1,29.685,2Zm.124,4.549L29.735,25,48.05,25.1C46.34,15.442,39.519,6.948,29.808,6.55Z" transform="translate(0 -2)" fill="#688f3c"/>
</svg>
