<svg id="Group_1140" data-name="Group 1140" xmlns="http://www.w3.org/2000/svg" width="38" height="38" viewBox="0 0 38 38">
  <path id="Path_4686" data-name="Path 4686" d="M0,0H38V38H0Z" fill="none"/>
  <path id="Path_4687" data-name="Path 4687" d="M7.167,10.333H4V32.5a3.166,3.166,0,0,0,3.167,3.167H29.333V32.5H7.167ZM32.5,4h-19a3.166,3.166,0,0,0-3.167,3.167v19A3.166,3.166,0,0,0,13.5,29.333h19a3.166,3.166,0,0,0,3.167-3.167v-19A3.166,3.166,0,0,0,32.5,4ZM30.917,18.25H24.583v6.333H21.417V18.25H15.083V15.083h6.333V8.75h3.167v6.333h6.333Z" transform="translate(-0.833 -0.833)" fill="#fff"/>
</svg>
