<svg xmlns="http://www.w3.org/2000/svg" width="27.6" height="33.672" viewBox="0 0 27.6 33.672">
    <g id="Group_233" data-name="Group 233" transform="translate(-80.03 -35)">
        <path id="Path_2275" data-name="Path 2275" d="M99.261,35.212A.8.8,0,0,0,98.717,35H83.956a3.873,3.873,0,0,0-3.926,3.809V64.863a3.873,3.873,0,0,0,3.926,3.809H103.7a3.873,3.873,0,0,0,3.926-3.809V43.32a.751.751,0,0,0-.242-.55Zm.242,2.335,5.319,4.946h-3.748A1.549,1.549,0,0,1,99.5,40.97Zm4.2,29.6H83.956A2.324,2.324,0,0,1,81.6,64.863V38.809a2.324,2.324,0,0,1,2.356-2.285H97.932V40.97a3.1,3.1,0,0,0,3.141,3.047h4.987V64.863A2.324,2.324,0,0,1,103.7,67.148Z" transform="translate(0 0)" fill="#fff" />
        <path id="Path_2276" data-name="Path 2276" d="M177.1,173.761a3.472,3.472,0,1,0-3.472-3.472A3.472,3.472,0,0,0,177.1,173.761Zm0-5.514a2.043,2.043,0,1,1-2.043,2.043A2.043,2.043,0,0,1,177.1,168.247Zm1.366,5.8h-2.469a4.837,4.837,0,0,0-4.832,4.832v3.193a.714.714,0,0,0,.714.714h10.662a.714.714,0,0,0,.714-.714v-3.269A4.778,4.778,0,0,0,178.462,174.049Zm3.361,7.311H172.59v-2.479a3.407,3.407,0,0,1,3.4-3.4h2.469a3.348,3.348,0,0,1,3.361,3.327Z" transform="translate(-83.376 -121.853)" fill="#fff" />
    </g>
</svg>  